# Blender 3.4.1
# www.blender.org
mtllib scene.mtl
o Plane
v -15.000000 -0.100000 15.000000
v -15.000000 0.100000 15.000000
v -15.000000 -0.100000 -15.000000
v -15.000000 0.100000 -15.000000
v 15.000000 -0.100000 15.000000
v 15.000000 0.100000 15.000000
v 15.000000 -0.100000 -15.000000
v 15.000000 0.100000 -15.000000
v 15.100000 0.100000 -15.000000
v 15.100000 -0.100000 -15.000000
v 15.100000 -0.100000 15.000000
v 15.100000 0.100000 15.000000
v -15.000000 0.100000 -15.100000
v -15.000000 -0.100000 -15.100000
v 15.000000 -0.100000 -15.100000
v 15.000000 0.100000 -15.100000
v -15.100000 -0.100000 -15.000000
v -15.100000 -0.100000 15.000000
v -15.100000 0.100000 15.000000
v -15.100000 0.100000 -15.000000
v -15.000000 -0.100000 15.100000
v -15.000000 0.100000 15.100000
v 15.000000 0.100000 15.100000
v 15.000000 -0.100000 15.100000
v -15.000000 5.100000 15.000000
v -15.000000 5.100000 -15.000000
v 15.000000 5.100000 -15.000000
v 15.000000 5.100000 15.000000
v 15.100000 5.100000 -15.000000
v 15.100000 5.100000 15.000000
v -15.000000 5.100000 -15.100000
v 15.000000 5.100000 -15.100000
v -15.100000 5.100000 15.000000
v -15.100000 5.100000 -15.000000
v 15.000000 5.100000 15.100000
v -15.000000 5.100000 15.100000
v 15.000000 0.100000 12.226571
v 15.000000 1.600000 12.226571
v 15.000000 0.100000 12.126571
v 15.000000 1.600000 12.126571
v -15.000000 0.100000 9.102831
v 9.742891 0.100000 9.102831
v -15.000000 1.600000 9.102831
v 9.742891 1.600000 9.102831
v 9.742891 0.100000 9.002831
v -15.000000 0.100000 9.002831
v 9.742891 1.600000 9.002831
v -15.000000 1.600000 9.002831
v 12.857142 0.100000 12.226571
v 10.714285 0.100000 12.226571
v 8.571428 0.100000 12.226571
v 6.428571 0.100000 12.226571
v 4.285714 0.100000 12.226571
v 2.142857 0.100000 12.226571
v 0.000000 0.100000 12.226571
v -2.142857 0.100000 12.226571
v -4.285714 0.100000 12.226571
v -6.428572 0.100000 12.226571
v -8.571428 0.100000 12.226571
v -10.714286 0.100000 12.226571
v -12.857143 0.100000 12.226571
v 12.857142 1.600000 12.226571
v 10.714285 1.600000 12.226571
v 8.571428 1.600000 12.226571
v 6.428571 1.600000 12.226571
v 4.285714 1.600000 12.226571
v 2.142857 1.600000 12.226571
v 0.000000 1.600000 12.226571
v -2.142857 1.600000 12.226571
v -4.285714 1.600000 12.226571
v -6.428572 1.600000 12.226571
v -8.571428 1.600000 12.226571
v -10.714286 1.600000 12.226571
v -12.857143 1.600000 12.226571
v 12.857142 0.100000 12.126571
v 10.714285 0.100000 12.126571
v 8.571428 0.100000 12.126571
v 6.428571 0.100000 12.126571
v 4.285714 0.100000 12.126571
v 2.142857 0.100000 12.126571
v 0.000000 0.100000 12.126571
v -2.142857 0.100000 12.126571
v -4.285714 0.100000 12.126571
v -6.428572 0.100000 12.126571
v -8.571428 0.100000 12.126571
v -10.714286 0.100000 12.126571
v -12.857143 0.100000 12.126571
v 12.857142 1.600000 12.126571
v 10.714285 1.600000 12.126571
v 8.571428 1.600000 12.126571
v 6.428571 1.600000 12.126571
v 4.285714 1.600000 12.126571
v 2.142857 1.600000 12.126571
v 0.000000 1.600000 12.126571
v -2.142857 1.600000 12.126571
v -4.285714 1.600000 12.126571
v -6.428572 1.600000 12.126571
v -8.571428 1.600000 12.126571
v -10.714286 1.600000 12.126571
v -12.857143 1.600000 12.126571
v 9.750556 0.100000 9.011698
v 9.750556 0.100000 -11.233044
v 9.750556 1.600000 9.011698
v 9.750556 1.600000 -11.233044
v 9.650556 0.100000 -11.233044
v 9.650556 0.100000 9.011698
v 9.650556 1.600000 -11.233044
v 9.650556 1.600000 9.011698
v 9.770478 0.167839 9.050812
v 9.770478 0.167839 6.711619
v 12.109672 0.167839 6.711619
v 12.109672 0.167839 9.050812
v 9.940075 -0.900000 6.881215
v 11.940075 -0.900000 8.881215
v 9.940075 -0.900000 8.881215
v 9.770478 -0.767839 6.711619
v 12.109672 -0.767839 6.711619
v 11.940075 -0.900000 6.881215
v 12.109672 -0.767839 9.050812
v 9.770478 -0.767839 9.050812
v 9.801994 -0.100000 -11.271281
v 9.801994 -0.100000 -8.994105
v 12.079170 -0.100000 -11.271281
v 12.079170 -0.100000 -8.994105
v 9.763710 0.100000 -11.309566
v 9.763710 0.100000 -8.955821
v 12.117455 0.100000 -11.309566
v 12.117455 0.100000 -8.955821
v 10.040583 -0.891478 -11.032693
v 10.040583 -0.891478 -9.232694
v 11.840582 -0.891478 -11.032693
v 11.840582 -0.891478 -9.232694
v 10.014008 -0.738074 -9.206119
v 11.867157 -0.738074 -9.206119
v 11.867157 -0.738074 -11.059268
v 10.014008 -0.738074 -11.059268
v 15.000000 0.100000 15.099926
v 15.100000 0.100000 15.099926
v 15.000000 5.100000 15.099926
v 15.100000 5.100000 15.099926
v 15.000000 -0.100000 15.101238
v 15.000000 0.100000 15.101238
v 15.100000 -0.100000 15.101238
v 15.100000 0.100000 15.101238
v 15.094242 -0.100000 -15.000000
v 15.094242 0.100000 -15.000000
v 15.094242 -0.100000 -15.100000
v 15.094242 5.100000 -15.000000
v 15.094242 5.100000 -15.100000
v 15.094242 0.100000 -15.100000
v -15.000000 -0.100000 -15.088100
v -15.000000 0.100000 -15.088100
v -15.100000 -0.100000 -15.088100
v -15.100000 0.100000 -15.088100
v -15.100000 5.100000 -15.088100
v -15.000000 5.100000 -15.088100
v -15.097867 -0.100000 15.000000
v -15.097867 0.100000 15.000000
v -15.097867 -0.100000 15.100000
v -15.097867 0.100000 15.100000
v -15.097867 5.100000 15.000000
v -15.097867 5.100000 15.100000
vn -0.0000 -0.0000 -1.0000
vn -0.0000 -0.0000 1.0000
vn 1.0000 -0.0000 -0.0000
vn -0.0000 1.0000 -0.0000
vn 0.0235 0.9997 -0.0000
vn -0.0000 -1.0000 -0.0000
vn -1.0000 -0.0000 -0.0000
vn 0.6147 0.7888 -0.0000
vn -0.0000 0.7888 0.6147
vn -0.6147 0.7888 -0.0000
vn -0.0000 0.7888 -0.6147
vn 0.9822 0.1880 -0.0000
vn -0.0000 0.1880 0.9822
vn -0.9822 0.1880 -0.0000
vn -0.0000 0.1880 -0.9822
vn -0.0000 -0.1707 0.9853
vn 0.9853 -0.1707 -0.0000
vn -0.0000 -0.1707 -0.9853
vn -0.9853 -0.1707 -0.0000
vn -0.9490 -0.3153 -0.0000
vn -0.0000 -0.3153 -0.9490
vn 0.9490 -0.3153 -0.0000
vn -0.0000 -0.3153 0.9490
vn -0.0000 1.0000 -0.0043
vn -0.0091 0.9999 -0.0043
vn -0.0027 1.0000 -0.0000
vn -0.0000 0.9999 0.0114
vn 0.0011 1.0000 -0.0043
vt 0.125000 0.750000
vt 0.375000 1.000000
vt 0.625000 1.000000
vt 0.875000 0.750000
vt 0.125000 0.500000
vt 0.375000 0.250000
vt 0.625000 0.250000
vt 0.875000 0.500000
vt 0.375000 0.750000
vt 0.625000 0.750000
vt 0.375000 0.500000
vt 0.625000 0.500000
vt 0.625000 0.500000
vt 0.375000 0.500000
vt 0.375000 0.750000
vt 0.625000 0.750000
vt 0.625000 0.250000
vt 0.375000 0.250000
vt 0.125000 0.500000
vt 0.375000 0.500000
vt 0.625000 0.500000
vt 0.375000 0.250000
vt 0.125000 0.500000
vt 0.375000 0.000000
vt 0.125000 0.750000
vt 0.375000 1.000000
vt 0.625000 1.000000
vt 0.625000 0.000000
vt 0.625000 0.250000
vt 0.375000 1.000000
vt 0.125000 0.750000
vt 0.625000 1.000000
vt 0.625000 0.750000
vt 0.375000 0.750000
vt 0.625000 1.000000
vt 0.875000 0.750000
vt 0.625000 0.250000
vt 0.875000 0.500000
vt 0.625000 0.500000
vt 0.625000 0.750000
vt 0.625000 0.500000
vt 0.625000 0.750000
vt 0.875000 0.500000
vt 0.625000 0.250000
vt 0.625000 0.500000
vt 0.625000 1.000000
vt 0.875000 0.750000
vt 0.625000 0.000000
vt 0.875000 0.500000
vt 0.625000 0.250000
vt 0.625000 0.750000
vt 0.875000 0.750000
vt 0.625000 1.000000
vt 0.625000 0.750000
vt 0.625000 0.750000
vt 0.625000 0.750000
vt 0.625000 0.750000
vt 0.875000 0.750000
vt 0.625000 0.750000
vt 0.875000 0.750000
vt 0.625000 0.750000
vt 0.625000 0.750000
vt 0.875000 0.750000
vt 0.625000 0.750000
vt 0.875000 0.750000
vt 0.642857 0.750000
vt 0.660714 0.750000
vt 0.678572 0.750000
vt 0.696429 0.750000
vt 0.714286 0.750000
vt 0.732143 0.750000
vt 0.750000 0.750000
vt 0.767857 0.750000
vt 0.785714 0.750000
vt 0.803571 0.750000
vt 0.821429 0.750000
vt 0.839286 0.750000
vt 0.857143 0.750000
vt 0.642857 0.750000
vt 0.660714 0.750000
vt 0.678572 0.750000
vt 0.696429 0.750000
vt 0.714286 0.750000
vt 0.732143 0.750000
vt 0.750000 0.750000
vt 0.767857 0.750000
vt 0.785714 0.750000
vt 0.803571 0.750000
vt 0.821429 0.750000
vt 0.839286 0.750000
vt 0.857143 0.750000
vt 0.642857 0.750000
vt 0.660714 0.750000
vt 0.678572 0.750000
vt 0.696429 0.750000
vt 0.714286 0.750000
vt 0.732143 0.750000
vt 0.750000 0.750000
vt 0.767857 0.750000
vt 0.785714 0.750000
vt 0.803571 0.750000
vt 0.821429 0.750000
vt 0.839286 0.750000
vt 0.857143 0.750000
vt 0.642857 0.750000
vt 0.660714 0.750000
vt 0.678572 0.750000
vt 0.696429 0.750000
vt 0.714286 0.750000
vt 0.732143 0.750000
vt 0.750000 0.750000
vt 0.767857 0.750000
vt 0.785714 0.750000
vt 0.803571 0.750000
vt 0.821429 0.750000
vt 0.839286 0.750000
vt 0.857143 0.750000
vt 0.875000 0.750000
vt 0.625000 0.750000
vt 0.875000 0.750000
vt 0.625000 0.750000
vt 0.625000 0.750000
vt 0.875000 0.750000
vt 0.625000 0.750000
vt 0.875000 0.750000
vt 0.667166 0.699010
vt 0.667166 0.682343
vt 0.650499 0.682343
vt 0.650499 0.699010
vt 0.524015 0.250000
vt 0.000000 0.000000
vt 0.000000 0.000000
vt 0.524015 0.750000
vt 0.524015 0.000000
vt 0.524015 1.000000
vt 0.000000 0.000000
vt 0.549015 0.250000
vt 0.667166 0.682343
vt 0.650499 0.682343
vt 0.549015 0.500000
vt 0.524015 0.500000
vt 0.000000 0.000000
vt 0.650499 0.699010
vt 0.549015 0.750000
vt 0.549015 0.000000
vt 0.549015 1.000000
vt 0.667166 0.699010
vt 0.499873 0.250000
vt 0.332838 0.532228
vt 0.499873 0.000000
vt 0.499873 1.000000
vt 0.332838 0.548894
vt 0.499873 0.500000
vt 0.349505 0.532228
vt 0.499873 0.750000
vt 0.349505 0.548894
vt 0.667162 0.532228
vt 0.524873 0.250000
vt 0.524873 0.000000
vt 0.667162 0.548894
vt 0.524873 1.000000
vt 0.650495 0.532228
vt 0.524873 0.500000
vt 0.650495 0.548894
vt 0.524873 0.750000
vt 0.000000 0.000000
vt 0.000000 0.000000
vt 0.000000 0.000000
vt 0.000000 0.000000
vt 0.070915 0.116947
vt 0.074466 0.116947
vt 0.074466 0.113396
vt 0.070915 0.113396
vt 0.625000 0.750000
vt 0.625000 0.750000
vt 0.625000 0.750000
vt 0.625000 0.750000
vt 0.375000 0.750000
vt 0.625000 0.750000
vt 0.375000 0.750000
vt 0.625000 0.750000
vt 0.375000 0.500000
vt 0.625000 0.500000
vt 0.375000 0.500000
vt 0.625000 0.500000
vt 0.625000 0.500000
vt 0.625000 0.500000
vt 0.375000 0.250000
vt 0.125000 0.500000
vt 0.625000 0.250000
vt 0.875000 0.500000
vt 0.125000 0.500000
vt 0.375000 0.250000
vt 0.625000 0.250000
vt 0.875000 0.500000
vt 0.625000 0.250000
vt 0.625000 0.250000
vt 0.875000 0.500000
vt 0.375000 1.000000
vt 0.125000 0.750000
vt 0.625000 1.000000
vt 0.875000 0.750000
vt 0.375000 1.000000
vt 0.125000 0.750000
vt 0.625000 1.000000
vt 0.625000 1.000000
vt 0.875000 0.750000
vt 0.875000 0.750000
vt 0.625000 1.000000
s 0
usemtl Base
f 2/4/1 28/40/1 6/10/1
f 2/3/2 33/46/2 19/27/2
f 12/16/3 143/180/3 11/15/3
f 25/36/4 162/208/4 36/52/4
f 9/13/3 11/15/3 10/14/3
f 7/11/6 11/15/6 5/9/6
f 4/7/7 31/44/7 13/17/7
f 8/12/1 10/14/1 7/11/1
f 13/17/1 15/20/1 14/18/1
f 4/7/7 14/18/7 3/6/7
f 27/39/4 149/186/4 32/45/4
f 3/5/6 15/20/6 7/11/6
f 19/28/7 17/22/7 18/24/7
f 1/1/6 17/23/6 3/5/6
f 3/6/3 152/190/3 4/7/3
f 2/3/2 18/26/2 1/2/2
f 23/33/2 21/30/2 24/34/2
f 6/10/3 24/34/3 5/9/3
f 22/32/2 159/203/2 21/30/2
f 5/9/6 21/31/6 1/1/6
f 26/38/4 33/47/4 25/36/4
f 27/39/4 31/43/4 26/38/4
f 25/36/4 35/51/4 28/40/4
f 28/40/4 29/41/4 27/39/4
f 6/10/3 35/51/3 23/33/3
f 8/12/1 29/41/1 9/13/1
f 8/12/2 26/38/2 4/8/2
f 9/13/3 30/42/3 12/16/3
f 13/17/1 32/45/1 16/21/1
f 19/28/7 34/50/7 20/29/7
f 6/10/7 27/39/7 8/12/7
f 8/12/2 148/185/2 27/39/2
f 23/33/2 36/53/2 22/32/2
f 4/8/3 25/36/3 2/4/3
f 30/42/3 138/175/3 12/16/3
f 26/38/4 155/195/4 34/49/4
f 37/54/3 40/57/3 38/55/3
f 38/55/4 88/105/4 62/79/4
f 44/61/2 41/58/2 42/59/2
f 46/63/1 47/64/1 45/62/1
f 44/61/4 48/65/4 43/60/4
f 49/66/6 39/56/6 37/54/6
f 50/67/6 75/92/6 49/66/6
f 51/68/6 76/93/6 50/67/6
f 52/69/6 77/94/6 51/68/6
f 53/70/6 78/95/6 52/69/6
f 54/71/6 79/96/6 53/70/6
f 55/72/6 80/97/6 54/71/6
f 56/73/6 81/98/6 55/72/6
f 57/74/6 82/99/6 56/73/6
f 58/75/6 83/100/6 57/74/6
f 59/76/6 84/101/6 58/75/6
f 60/77/6 85/102/6 59/76/6
f 61/78/6 86/103/6 60/77/6
f 74/91/7 87/104/7 61/78/7
f 73/90/4 100/117/4 74/91/4
f 72/89/4 99/116/4 73/90/4
f 71/88/4 98/115/4 72/89/4
f 70/87/4 97/114/4 71/88/4
f 69/86/4 96/113/4 70/87/4
f 68/85/4 95/112/4 69/86/4
f 67/84/4 94/111/4 68/85/4
f 66/83/4 93/110/4 67/84/4
f 65/82/4 92/109/4 66/83/4
f 64/81/4 91/108/4 65/82/4
f 63/80/4 90/107/4 64/81/4
f 62/79/4 89/106/4 63/80/4
f 75/92/1 40/57/1 39/56/1
f 76/93/1 88/105/1 75/92/1
f 77/94/1 89/106/1 76/93/1
f 78/95/1 90/107/1 77/94/1
f 79/96/1 91/108/1 78/95/1
f 80/97/1 92/109/1 79/96/1
f 81/98/1 93/110/1 80/97/1
f 82/99/1 94/111/1 81/98/1
f 83/100/1 95/112/1 82/99/1
f 84/101/1 96/113/1 83/100/1
f 85/102/1 97/114/1 84/101/1
f 86/103/1 98/115/1 85/102/1
f 87/104/1 99/116/1 86/103/1
f 38/55/2 49/66/2 37/54/2
f 62/79/2 50/67/2 49/66/2
f 63/80/2 51/68/2 50/67/2
f 64/81/2 52/69/2 51/68/2
f 65/82/2 53/70/2 52/69/2
f 66/83/2 54/71/2 53/70/2
f 67/84/2 55/72/2 54/71/2
f 68/85/2 56/73/2 55/72/2
f 69/86/2 57/74/2 56/73/2
f 70/87/2 58/75/2 57/74/2
f 71/88/2 59/76/2 58/75/2
f 72/89/2 60/77/2 59/76/2
f 73/90/2 61/78/2 60/77/2
f 104/121/3 101/118/3 102/119/3
f 106/123/7 107/124/7 105/122/7
f 104/121/4 108/125/4 103/120/4
f 45/62/3 44/61/3 42/59/3
f 103/120/2 106/123/2 101/118/2
f 112/129/1 120/147/1 109/126/1
f 110/127/2 117/139/2 111/128/2
f 111/128/7 119/143/7 112/129/7
f 115/134/8 116/137/8 120/145/8
f 113/130/9 117/140/9 116/137/9
f 114/133/10 117/140/10 118/141/10
f 115/135/11 119/144/11 114/133/11
f 109/126/3 116/138/3 110/127/3
f 104/121/1 105/122/1 107/124/1
f 133/170/16 132/169/16 134/171/16
f 134/171/17 131/168/17 135/172/17
f 135/172/18 129/166/18 136/173/18
f 136/173/19 130/167/19 133/170/19
f 121/149/20 133/170/20 122/152/20
f 123/154/21 136/173/21 121/149/21
f 124/156/22 135/172/22 123/154/22
f 122/152/23 134/171/23 124/156/23
f 138/175/2 139/176/2 137/174/2
f 28/40/4 140/177/4 30/42/4
f 12/16/6 137/174/6 6/10/6
f 6/10/7 139/176/7 28/40/7
f 141/178/2 144/181/2 142/179/2
f 11/15/6 141/178/6 5/9/6
f 6/10/4 144/181/4 12/16/4
f 5/9/7 142/179/7 6/10/7
f 145/182/3 150/187/3 146/183/3
f 150/187/3 148/185/3 146/183/3
f 15/20/6 145/182/6 7/11/6
f 32/45/1 150/187/1 16/21/1
f 16/21/1 147/184/1 15/20/1
f 7/11/2 146/183/2 8/12/2
f 151/188/1 154/194/1 152/190/1
f 154/194/1 156/197/1 152/190/1
f 17/23/6 151/189/6 3/5/6
f 20/29/7 153/193/7 17/22/7
f 4/8/3 156/198/3 26/38/3
f 34/50/7 154/194/7 20/29/7
f 160/205/7 161/206/7 158/201/7
f 157/199/7 160/205/7 158/201/7
f 36/53/2 160/205/2 22/32/2
f 1/2/1 158/201/1 2/3/1
f 2/4/1 161/207/1 25/36/1
f 21/31/6 157/200/6 1/1/6
f 2/4/1 25/36/1 28/40/1
f 2/3/2 25/35/2 33/46/2
f 12/16/3 144/181/3 143/180/3
f 25/36/4 161/207/4 162/208/4
f 9/13/3 12/16/3 11/15/3
f 7/11/6 10/14/6 11/15/6
f 4/7/7 26/37/7 31/44/7
f 8/12/1 9/13/1 10/14/1
f 13/17/1 16/21/1 15/20/1
f 4/7/7 13/17/7 14/18/7
f 27/39/4 148/185/4 149/186/4
f 3/5/6 14/19/6 15/20/6
f 19/28/7 20/29/7 17/22/7
f 1/1/6 18/25/6 17/23/6
f 3/6/3 151/188/3 152/190/3
f 2/3/2 19/27/2 18/26/2
f 23/33/2 22/32/2 21/30/2
f 6/10/3 23/33/3 24/34/3
f 22/32/2 160/205/2 159/203/2
f 5/9/6 24/34/6 21/31/6
f 26/38/4 34/49/4 33/47/4
f 27/39/4 32/45/4 31/43/4
f 25/36/4 36/52/4 35/51/4
f 28/40/4 30/42/4 29/41/4
f 6/10/3 28/40/3 35/51/3
f 8/12/1 27/39/1 29/41/1
f 8/12/2 27/39/2 26/38/2
f 9/13/3 29/41/3 30/42/3
f 13/17/1 31/44/1 32/45/1
f 19/28/7 33/48/7 34/50/7
f 6/10/7 28/40/7 27/39/7
f 8/12/2 146/183/2 148/185/2
f 23/33/2 35/51/2 36/53/2
f 4/8/3 26/38/3 25/36/3
f 30/42/3 140/177/3 138/175/3
f 26/38/4 156/198/4 155/195/4
f 37/54/3 39/56/3 40/57/3
f 38/55/4 40/57/4 88/105/4
f 44/61/2 43/60/2 41/58/2
f 46/63/1 48/65/1 47/64/1
f 44/61/4 47/64/4 48/65/4
f 49/66/6 75/92/6 39/56/6
f 50/67/6 76/93/6 75/92/6
f 51/68/6 77/94/6 76/93/6
f 52/69/6 78/95/6 77/94/6
f 53/70/6 79/96/6 78/95/6
f 54/71/6 80/97/6 79/96/6
f 55/72/6 81/98/6 80/97/6
f 56/73/6 82/99/6 81/98/6
f 57/74/6 83/100/6 82/99/6
f 58/75/6 84/101/6 83/100/6
f 59/76/6 85/102/6 84/101/6
f 60/77/6 86/103/6 85/102/6
f 61/78/6 87/104/6 86/103/6
f 74/91/7 100/117/7 87/104/7
f 73/90/4 99/116/4 100/117/4
f 72/89/4 98/115/4 99/116/4
f 71/88/4 97/114/4 98/115/4
f 70/87/4 96/113/4 97/114/4
f 69/86/4 95/112/4 96/113/4
f 68/85/4 94/111/4 95/112/4
f 67/84/4 93/110/4 94/111/4
f 66/83/4 92/109/4 93/110/4
f 65/82/4 91/108/4 92/109/4
f 64/81/4 90/107/4 91/108/4
f 63/80/4 89/106/4 90/107/4
f 62/79/4 88/105/4 89/106/4
f 75/92/1 88/105/1 40/57/1
f 76/93/1 89/106/1 88/105/1
f 77/94/1 90/107/1 89/106/1
f 78/95/1 91/108/1 90/107/1
f 79/96/1 92/109/1 91/108/1
f 80/97/1 93/110/1 92/109/1
f 81/98/1 94/111/1 93/110/1
f 82/99/1 95/112/1 94/111/1
f 83/100/1 96/113/1 95/112/1
f 84/101/1 97/114/1 96/113/1
f 85/102/1 98/115/1 97/114/1
f 86/103/1 99/116/1 98/115/1
f 87/104/1 100/117/1 99/116/1
f 38/55/2 62/79/2 49/66/2
f 62/79/2 63/80/2 50/67/2
f 63/80/2 64/81/2 51/68/2
f 64/81/2 65/82/2 52/69/2
f 65/82/2 66/83/2 53/70/2
f 66/83/2 67/84/2 54/71/2
f 67/84/2 68/85/2 55/72/2
f 68/85/2 69/86/2 56/73/2
f 69/86/2 70/87/2 57/74/2
f 70/87/2 71/88/2 58/75/2
f 71/88/2 72/89/2 59/76/2
f 72/89/2 73/90/2 60/77/2
f 73/90/2 74/91/2 61/78/2
f 104/121/3 103/120/3 101/118/3
f 106/123/7 108/125/7 107/124/7
f 104/121/4 107/124/4 108/125/4
f 45/62/3 47/64/3 44/61/3
f 103/120/2 108/125/2 106/123/2
f 112/129/1 119/143/1 120/147/1
f 110/127/2 116/138/2 117/139/2
f 111/128/7 117/139/7 119/143/7
f 115/134/8 113/130/8 116/137/8
f 113/130/9 118/141/9 117/140/9
f 114/133/10 119/144/10 117/140/10
f 115/135/11 120/146/11 119/144/11
f 109/126/3 120/147/3 116/138/3
f 104/121/1 102/119/1 105/122/1
f 133/170/16 130/167/16 132/169/16
f 134/171/17 132/169/17 131/168/17
f 135/172/18 131/168/18 129/166/18
f 136/173/19 129/166/19 130/167/19
f 121/149/20 136/173/20 133/170/20
f 123/154/21 135/172/21 136/173/21
f 124/156/22 134/171/22 135/172/22
f 122/152/23 133/170/23 134/171/23
f 138/175/2 140/177/2 139/176/2
f 28/40/4 139/176/4 140/177/4
f 12/16/6 138/175/6 137/174/6
f 6/10/7 137/174/7 139/176/7
f 141/178/2 143/180/2 144/181/2
f 11/15/6 143/180/6 141/178/6
f 6/10/4 142/179/4 144/181/4
f 5/9/7 141/178/7 142/179/7
f 145/182/3 147/184/3 150/187/3
f 150/187/3 149/186/3 148/185/3
f 15/20/6 147/184/6 145/182/6
f 32/45/1 149/186/1 150/187/1
f 16/21/1 150/187/1 147/184/1
f 7/11/2 145/182/2 146/183/2
f 151/188/1 153/193/1 154/194/1
f 154/194/1 155/196/1 156/197/1
f 17/23/6 153/192/6 151/189/6
f 20/29/7 154/194/7 153/193/7
f 4/8/3 152/191/3 156/198/3
f 34/50/7 155/196/7 154/194/7
f 160/205/7 162/209/7 161/206/7
f 157/199/7 159/203/7 160/205/7
f 36/53/2 162/209/2 160/205/2
f 1/2/1 157/199/1 158/201/1
f 2/4/1 158/202/1 161/207/1
f 21/31/6 159/204/6 157/200/6
usemtl Floor
f 8/12/4 127/162/4 128/164/4
f 126/160/4 125/157/4 4/8/4
f 6/10/5 111/128/5 112/129/5
f 115/136/6 118/142/6 114/132/6
f 132/169/6 129/166/6 131/168/6
f 128/164/24 126/160/24 110/127/24
f 110/127/24 111/128/24 128/164/24
f 111/128/25 8/12/25 128/164/25
f 125/157/4 127/162/4 8/12/4
f 4/8/26 2/4/26 110/127/26
f 2/4/27 6/10/27 109/126/27
f 6/10/27 112/129/27 109/126/27
f 109/126/26 110/127/26 2/4/26
f 110/127/28 126/160/28 4/8/28
f 125/157/4 8/12/4 4/8/4
f 6/10/5 8/12/5 111/128/5
f 115/136/6 113/131/6 118/142/6
f 132/169/6 130/167/6 129/166/6
usemtl 
f 122/150/12 125/158/12 126/159/12
f 121/148/13 127/163/13 125/158/13
f 124/155/14 127/163/14 123/153/14
f 122/151/15 128/165/15 124/155/15
f 122/150/12 121/148/12 125/158/12
f 121/148/13 123/153/13 127/163/13
f 124/155/14 128/165/14 127/163/14
f 122/151/15 126/161/15 128/165/15
l 7 123
